<?xml version="1.0" encoding="utf-8"?>
<!-- Generator: Adobe Illustrator 24.0.1, SVG Export Plug-In . SVG Version: 6.00 Build 0)  -->
<svg version="1.1" id="レイヤー_1" focusable="false"
	 xmlns="http://www.w3.org/2000/svg" xmlns:xlink="http://www.w3.org/1999/xlink" x="0px" y="0px" viewBox="0 0 512 512"
	 style="enable-background:new 0 0 512 512;" xml:space="preserve">
<g>
	<path d="M104,224H24c-13.3,0-24,10.7-24,24v240c0,13.3,10.7,24,24,24h80c13.3,0,24-10.7,24-24V248C128,234.7,117.3,224,104,224z"/>
	<path d="M384,81.5c0,42.4-26,66.2-33.3,94.5h101.7c33.4,0,59.4,27.7,59.6,58.1c0.1,17.9-7.5,37.2-19.4,49.2l-0.1,0.1
		c9.8,23.3,8.2,56-9.3,79.5c8.7,25.9-0.1,57.7-16.4,74.8c4.3,17.6,2.2,32.6-6.1,44.6c-20.4,29.3-71,29.7-113.8,29.7l-2.8,0
		c-48.3,0-87.8-17.6-119.6-31.7c-16-7.1-43.4-16-59.2-16.3c-6.5-0.1-5.2-5.3-26.2-11.9V238.3c21-3.2,22.3-6.3,24.6-8.5
		c39.6-39.1,56.6-80.6,89.1-113.1c14.8-14.8,20.2-37.2,25.4-58.9C282.5,39.3,291.8,0,312,0C336,0,384,8,384,81.5z"/>
</g>
</svg>
